<svg width="100" height="100" viewBox="0 0 100 100" fill="none" xmlns="http://www.w3.org/2000/svg">
  <path d="M25 82C25 82 28 65 35 70C42 75 48 60 55 72C62 84 75 60 80 82C80 82 60 95 50 95C40 95 25 82 25 82Z" fill="#FF5722"/>
  <path d="M35 85C35 85 38 75 45 78C52 81 58 70 65 85C65 85 55 90 50 90C45 90 35 85 35 85Z" fill="#FFC107"/>
  <path d="M10 40C10 65 35 85 60 85C85 85 95 65 95 50L90 48C90 62 78 80 60 80C38 80 15 62 15 42L10 40Z" fill="#121212" stroke="#2A2A2A" stroke-width="1"/>
  <path d="M10 40C10 58 35 75 60 75C85 75 95 55 95 48C95 48 85 52 60 52C35 52 10 38 10 38L10 40Z" fill="#1E1E1E"/>
  <path d="M20 65C35 73 60 73 80 62" stroke="white" stroke-width="1.5" stroke-linecap="round" opacity="0.2"/>
  <path d="M65 30C65 25 72 23 75 27C78 31 72 37 68 35C64 33 65 30 65 30Z" fill="#FF8A80" transform="rotate(-20 70 30)"/>
  <rect x="45" y="20" width="7" height="7" rx="1.5" transform="rotate(30 48 23)" fill="#4CAF50"/>
  <path d="M55 35L65 40L62 33L55 35Z" fill="#FF9800" transform="rotate(10 60 36)"/>
</svg>
